<?xml version="1.0" standalone="no"?>
<!DOCTYPE svg PUBLIC "-//W3C//DTD SVG 20010904//EN"
 "http://www.w3.org/TR/2001/REC-SVG-20010904/DTD/svg10.dtd">
<svg version="1.0" xmlns="http://www.w3.org/2000/svg"
 width="1965.000000pt" height="1143.000000pt" viewBox="0 0 1965.000000 1143.000000"
 preserveAspectRatio="xMidYMid meet">
<metadata>
Created by potrace 1.10, written by Peter Selinger 2001-2011
</metadata>
<g transform="translate(0.000000,1143.000000) scale(0.100000,-0.100000)"
fill="#000000" stroke="none">
<path d="M6635 10898 c-165 -11 -275 -26 -360 -49 -44 -11 -100 -25 -124 -30
-24 -5 -49 -13 -55 -17 -6 -5 -45 -19 -86 -32 -41 -13 -82 -27 -90 -32 -8 -4
-53 -26 -100 -48 -89 -42 -138 -68 -207 -113 -24 -15 -45 -27 -49 -27 -3 0
-21 -12 -40 -27 -67 -56 -92 -73 -106 -73 -8 0 -73 59 -143 130 -71 72 -133
130 -137 130 -4 0 -8 -15 -8 -33 0 -18 -6 -41 -14 -52 -7 -11 -16 -31 -19 -45
-3 -14 -10 -38 -16 -55 -6 -16 -13 -42 -16 -56 -5 -29 -19 -38 -80 -50 -22 -4
-75 -20 -118 -34 l-79 -27 89 -91 c48 -49 108 -109 132 -132 50 -48 50 -47
-24 -145 -23 -30 -45 -62 -49 -70 -11 -23 -31 -56 -42 -71 -14 -17 -94 -175
-128 -251 -31 -67 -86 -222 -93 -260 -3 -15 -10 -31 -17 -36 -15 -11 -86 -35
-166 -57 -60 -15 -120 -32 -194 -53 -17 -4 -32 -14 -34 -20 -3 -9 119 -12 515
-12 285 0 528 -3 541 -6 18 -5 22 -13 22 -49 0 -24 -7 -56 -15 -71 -8 -16 -15
-39 -15 -50 0 -12 -7 -38 -15 -57 -11 -28 -15 -79 -15 -217 l0 -181 31 -57
c18 -31 40 -65 50 -75 11 -10 19 -23 19 -30 0 -36 -13 -37 -575 -37 -505 0
-638 -6 -549 -25 16 -3 52 -12 79 -20 91 -26 149 -42 215 -60 108 -28 107 -28
155 -166 49 -146 100 -259 174 -392 36 -64 86 -141 133 -203 21 -28 38 -55 38
-59 0 -5 -57 -66 -127 -137 -121 -122 -127 -130 -109 -144 11 -8 29 -14 41
-14 12 0 30 -7 41 -15 10 -8 35 -15 54 -15 55 -1 114 -40 121 -81 8 -40 26
-93 45 -132 8 -16 14 -42 14 -58 0 -16 4 -29 9 -29 5 0 68 58 139 130 72 71
133 130 136 130 3 0 44 -27 91 -60 47 -33 89 -60 92 -60 4 0 14 -7 23 -15 43
-39 249 -140 395 -193 121 -44 198 -64 421 -107 112 -22 543 -22 627 0 32 8
69 15 83 15 60 0 341 82 459 135 99 44 245 121 306 162 39 27 78 53 87 58 9 6
33 22 53 38 20 15 41 27 46 27 5 0 67 -58 139 -130 71 -71 132 -130 137 -130
4 0 7 8 7 18 0 10 7 27 15 38 8 10 15 33 15 49 1 36 31 127 50 150 17 20 75
45 107 45 13 0 34 6 46 14 12 8 39 17 59 20 21 4 40 11 43 15 2 5 -51 65 -120
134 -81 80 -125 132 -125 145 0 12 13 36 28 54 103 120 268 443 327 643 18 61
53 105 83 105 9 0 37 6 62 14 25 8 72 22 105 31 33 10 80 23 105 31 25 7 58
16 74 19 91 19 -47 25 -571 25 -314 0 -578 3 -587 6 -24 9 -19 32 14 74 17 21
30 43 30 50 0 7 6 24 13 38 8 15 21 42 30 60 9 19 17 46 17 60 0 15 8 47 16
72 13 35 17 90 18 248 1 167 4 205 16 212 9 6 218 10 508 10 377 0 493 3 490
12 -2 6 -17 16 -34 20 -31 9 -90 26 -189 53 -97 27 -159 47 -170 56 -6 4 -19
34 -28 66 -30 93 -76 213 -108 278 -16 33 -29 63 -29 68 0 12 -146 253 -184
303 -20 26 -36 55 -36 65 0 10 58 76 129 146 l130 129 -57 18 c-31 10 -69 24
-84 32 -14 8 -41 14 -60 14 -24 0 -42 8 -58 25 -27 29 -59 116 -60 162 0 17
-4 35 -10 38 -5 3 -13 20 -18 37 l-8 30 -131 -131 c-72 -72 -138 -131 -147
-131 -9 0 -45 23 -80 50 -35 28 -67 50 -70 50 -4 0 -25 12 -49 27 -66 43 -76
49 -187 103 -58 28 -117 58 -132 66 -14 8 -32 14 -40 14 -8 0 -43 12 -79 26
-35 15 -82 30 -104 34 -22 4 -83 19 -137 34 -53 14 -114 26 -135 26 -22 0 -64
4 -94 9 -76 13 -236 17 -354 9z m203 -260 c15 -15 16 -55 1 -64 -8 -5 -10 -51
-7 -161 6 -170 5 -173 -59 -173 -45 0 -57 14 -120 138 -9 17 -23 32 -30 32
-19 0 -17 -70 3 -98 35 -51 -10 -101 -79 -88 -41 8 -57 39 -38 74 6 12 11 66
11 122 0 86 -3 108 -22 141 -21 37 -21 39 -3 59 13 15 31 20 64 20 25 0 52 -4
59 -8 13 -9 82 -121 95 -155 13 -33 27 -16 27 32 0 31 -5 53 -15 61 -20 17
-19 57 3 69 24 14 95 14 110 -1z m590 -106 c90 -37 122 -89 86 -140 -21 -30
-77 -28 -82 3 -10 54 -64 71 -99 33 -25 -29 -53 -100 -53 -136 0 -38 26 -72
56 -72 14 0 40 -7 59 -14 29 -13 35 -20 35 -45 0 -37 -26 -47 -97 -36 -96 14
-173 81 -173 150 0 64 50 183 92 221 59 55 106 64 176 36z m-1322 -24 c4 -6 6
-29 6 -51 -1 -21 5 -51 12 -66 8 -14 22 -44 31 -66 36 -88 45 -105 54 -105 16
0 33 -39 26 -60 -6 -19 -82 -60 -111 -60 -25 0 -44 31 -42 70 1 22 -6 58 -15
80 -10 22 -25 59 -34 83 -9 23 -30 56 -46 73 -38 41 -32 64 23 91 50 24 85 29
96 11z m1856 -262 c62 -32 158 -114 158 -136 0 -52 -53 -100 -94 -84 -11 4
-19 -2 -25 -17 -11 -31 -56 -79 -73 -79 -7 0 -24 16 -37 35 -27 40 -41 43 -65
16 -28 -30 -6 -61 43 -61 30 0 40 -5 49 -24 9 -21 7 -30 -16 -60 -15 -19 -35
-35 -46 -36 -17 0 -148 102 -189 148 -24 26 -9 59 34 74 17 6 49 35 76 72 26
33 53 64 59 69 7 4 16 22 19 39 10 43 26 68 45 68 8 0 36 -11 62 -24z m-2320
-13 c26 -30 29 -54 12 -80 -13 -20 -21 -24 -45 -19 -37 7 -59 -2 -59 -24 0
-28 24 -31 82 -9 82 30 111 26 158 -21 33 -33 40 -47 40 -80 0 -54 -20 -91
-72 -133 -49 -40 -110 -56 -134 -36 -28 23 -36 59 -19 85 13 20 23 23 63 21
45 -2 47 -1 50 27 5 37 -14 48 -51 29 -16 -8 -53 -17 -83 -20 -48 -5 -59 -3
-95 23 -49 33 -63 64 -54 119 7 51 61 115 95 115 14 0 32 5 40 10 23 15 55 12
72 -7z m1293 -188 c157 -21 256 -50 392 -116 164 -78 365 -232 378 -290 l6
-25 -101 -12 -101 -12 -32 34 c-64 67 -271 180 -387 211 -247 65 -419 65 -662
1 -197 -52 -418 -198 -550 -364 -13 -16 -29 -22 -60 -22 -24 0 -67 -3 -95 -6
-51 -7 -53 -6 -53 18 0 33 73 131 167 221 75 73 165 147 178 147 4 0 21 11 38
24 42 32 230 126 252 126 9 0 25 5 36 11 59 31 263 65 404 68 44 0 130 -6 190
-14z m905 -494 c19 -8 47 -20 62 -27 14 -8 32 -14 40 -14 7 0 28 -13 46 -30
18 -16 37 -30 42 -30 12 0 130 -151 130 -167 0 -8 7 -27 15 -44 22 -42 22
-256 0 -298 -8 -17 -15 -39 -15 -49 0 -10 -12 -37 -28 -58 -15 -21 -33 -50
-40 -64 -7 -14 -30 -44 -51 -67 -40 -44 -166 -143 -181 -143 -5 0 -29 -13 -53
-30 -25 -16 -52 -30 -60 -30 -8 0 -20 -7 -27 -15 -7 -8 -20 -15 -29 -15 -10 0
-26 -7 -37 -15 -10 -8 -29 -15 -41 -15 -12 0 -37 -6 -55 -14 -58 -24 -102 -38
-143 -46 -22 -4 -60 -12 -85 -18 -112 -27 -203 -35 -455 -39 -270 -5 -354 1
-525 39 -25 5 -70 13 -100 18 -30 4 -66 12 -80 18 -14 5 -59 20 -100 32 -103
31 -160 51 -166 61 -3 5 -15 9 -27 9 -12 0 -31 7 -41 15 -11 8 -27 15 -37 15
-9 0 -19 7 -23 15 -3 8 -13 15 -21 15 -23 0 -165 111 -210 162 -54 64 -105
144 -105 166 0 11 -6 25 -14 31 -14 11 -21 42 -33 130 -6 50 13 147 34 172 7
8 13 20 13 26 0 19 91 102 133 121 101 47 290 68 340 40 12 -7 51 -18 87 -25
147 -27 170 -32 182 -40 22 -14 118 -33 248 -50 128 -16 245 -10 370 18 25 6
63 14 85 18 22 4 49 12 60 18 26 14 84 34 115 40 14 3 30 10 35 17 14 15 74
46 90 46 7 0 40 14 73 30 34 17 68 30 77 30 9 0 26 5 38 11 11 7 53 20 91 30
86 22 319 22 376 0z m-2408 -958 c15 -17 36 -54 57 -99 17 -38 156 -152 229
-189 103 -53 135 -101 60 -91 -91 11 -121 19 -161 42 -23 13 -51 28 -62 33
-60 28 -175 196 -175 256 0 29 16 65 29 65 4 0 15 -8 23 -17z m2478 -298 c0
-17 -33 -53 -65 -72 -49 -28 -162 -83 -172 -83 -6 0 -16 -7 -23 -15 -7 -8 -25
-15 -39 -15 -15 0 -36 -7 -47 -15 -10 -8 -34 -15 -51 -15 -18 0 -51 -7 -73
-16 -29 -12 -64 -15 -129 -13 -101 4 -124 16 -93 47 14 14 40 22 89 27 62 6
114 18 198 47 17 6 49 13 73 18 24 4 48 12 54 18 7 7 22 12 34 12 12 0 27 7
34 15 7 8 21 15 32 15 18 0 34 7 108 46 34 18 70 18 70 -1z m28 -104 c2 -18
-3 -40 -10 -49 -7 -10 -21 -32 -31 -50 -75 -135 -211 -289 -350 -394 -74 -57
-257 -160 -316 -178 -14 -5 -57 -20 -96 -34 -38 -14 -81 -26 -95 -26 -14 0
-57 -7 -95 -15 -208 -44 -579 13 -751 114 -19 12 -40 21 -46 21 -6 0 -57 30
-112 67 -189 124 -436 408 -436 500 0 40 12 41 56 8 18 -14 39 -25 46 -25 7 0
22 -7 32 -15 11 -8 27 -15 37 -15 9 0 22 -7 29 -15 7 -8 20 -15 30 -15 9 0 31
-22 49 -49 64 -100 255 -248 406 -316 63 -28 98 -39 232 -74 113 -30 417 -31
472 -2 11 6 31 11 45 11 14 0 45 7 68 16 96 36 194 78 209 91 8 7 18 13 22 13
3 0 26 14 49 30 24 17 59 41 78 54 54 36 194 185 222 236 16 29 33 47 49 51
39 8 104 42 158 82 32 23 45 17 49 -22z m-1948 -696 c22 -14 40 -33 40 -43 0
-9 -23 -50 -50 -90 -28 -41 -50 -75 -50 -77 0 -2 -13 -23 -29 -47 -16 -24 -31
-59 -33 -77 -5 -52 -34 -57 -97 -18 -28 18 -53 40 -56 49 -9 26 11 55 42 61
24 5 66 52 82 92 2 6 15 24 28 41 25 34 29 64 11 82 -9 9 -7 16 7 32 24 27 57
25 105 -5z m1657 -40 c22 -19 57 -62 78 -97 33 -57 37 -70 38 -136 1 -67 -1
-75 -23 -93 -54 -43 -87 -59 -124 -59 -34 0 -45 7 -85 49 -85 89 -106 133
-106 221 0 77 8 91 74 125 65 34 99 32 148 -10z m-1179 -161 c51 -30 67 -63
66 -134 -1 -124 -82 -228 -192 -246 -34 -5 -42 -3 -51 14 -16 30 -6 46 44 70
51 25 57 47 18 64 -16 6 -43 25 -60 42 -54 49 -44 133 22 188 26 23 117 24
153 2z m646 -20 c20 -19 20 -35 1 -81 -8 -19 -15 -45 -15 -56 0 -11 -7 -45
-16 -76 -56 -198 -60 -204 -113 -199 -33 3 -36 5 -34 33 1 17 6 48 12 70 5 22
15 60 21 85 7 25 18 63 25 86 7 23 9 47 5 54 -11 17 -45 4 -64 -25 -24 -36
-67 -34 -89 4 -20 34 -22 65 -4 78 16 13 91 32 142 36 92 8 114 7 129 -9z"/>
<path d="M7924 10099 c-18 -20 -18 -21 6 -40 32 -24 56 -24 63 0 6 22 -18 61
-37 61 -7 0 -21 -9 -32 -21z"/>
<path d="M7517 9443 c-5 -4 -43 -11 -85 -14 -43 -3 -101 -16 -132 -28 -30 -13
-64 -25 -75 -28 -21 -5 -80 -30 -105 -45 -8 -4 -22 -11 -30 -14 -8 -3 -33 -13
-55 -21 -22 -9 -53 -21 -70 -28 -70 -29 -104 -38 -170 -46 -38 -4 -101 -13
-140 -19 -38 -6 -101 -8 -140 -4 -96 8 -303 53 -343 73 -58 29 -229 55 -316
47 -177 -16 -287 -74 -338 -176 -16 -31 -28 -72 -28 -94 0 -49 27 -129 62
-184 16 -24 28 -47 28 -51 0 -29 207 -189 298 -231 142 -63 176 -77 237 -91
22 -6 44 -14 49 -20 6 -5 27 -9 48 -9 21 0 55 -7 75 -15 19 -8 59 -15 87 -15
28 0 76 -7 106 -15 79 -21 566 -21 636 0 27 8 65 15 84 15 19 0 53 7 75 15 22
8 59 14 83 15 23 0 59 7 79 15 19 8 45 15 57 15 11 0 30 7 40 15 11 8 29 15
40 15 11 0 48 13 81 29 33 16 67 32 75 35 8 3 29 15 45 26 17 11 37 23 45 26
36 16 200 155 200 169 0 2 14 24 30 48 17 25 30 54 30 65 0 11 7 36 15 55 8
20 15 61 15 92 0 31 -7 72 -15 92 -8 19 -15 42 -15 50 0 20 -76 118 -108 140
-79 53 -141 81 -197 88 -96 11 -250 17 -258 8z m119 -167 c106 -29 134 -55
134 -123 0 -49 -4 -57 -41 -98 -23 -25 -49 -45 -59 -45 -10 0 -23 -7 -30 -15
-7 -8 -20 -15 -29 -15 -10 0 -39 -7 -66 -17 -45 -15 -54 -15 -140 1 -79 15
-97 22 -130 53 -36 33 -39 40 -39 87 0 46 4 55 34 85 19 18 57 43 85 56 58 27
181 56 210 49 11 -2 43 -11 71 -18z"/>
<path d="M7527 7393 c-37 -36 80 -248 127 -230 21 8 20 54 -2 97 -54 105 -103
156 -125 133z"/>
<path d="M6379 7206 c-7 -14 -9 -36 -5 -51 5 -21 12 -26 34 -23 23 2 28 8 30
36 6 57 -38 85 -59 38z"/>
<path d="M4332 6056 c-11 -14 -25 -58 -32 -101 -11 -67 -11 -78 3 -92 19 -19
31 -12 65 40 54 84 65 133 36 161 -22 23 -50 20 -72 -8z"/>
<path d="M4890 5930 c-150 -12 -221 -135 -162 -281 18 -44 125 -109 181 -109
36 0 104 -41 118 -71 21 -43 0 -95 -47 -119 -68 -35 -160 -17 -160 30 0 43
-62 66 -93 35 -9 -8 -18 -33 -22 -56 -6 -34 -3 -44 15 -64 11 -12 38 -25 58
-29 168 -28 202 -27 288 14 113 55 140 221 50 312 -25 24 -80 48 -186 79 -61
18 -90 49 -90 94 0 25 8 44 25 61 22 21 33 25 77 22 51 -3 54 -5 76 -45 19
-35 29 -43 52 -43 37 0 49 18 57 78 5 49 5 51 -28 68 -41 22 -121 31 -209 24z"/>
<path d="M417 5923 c-15 -14 -6 -57 18 -85 l25 -30 0 -314 0 -315 -25 -25
c-27 -27 -63 -29 -75 -4 -23 51 -28 55 -61 55 -31 0 -34 -3 -47 -48 -13 -46
-12 -50 7 -71 21 -23 98 -46 151 -46 37 0 106 25 128 47 44 44 46 63 50 408
l3 330 25 23 c26 25 31 51 12 70 -13 13 -199 17 -211 5z"/>
<path d="M960 5910 c-12 -23 -4 -45 29 -74 20 -18 21 -28 21 -247 l0 -228 -32
-25 c-32 -25 -33 -26 -18 -53 l16 -28 204 -3 c235 -3 230 -5 230 84 0 35 -5
58 -16 68 -18 19 -32 13 -69 -31 -26 -32 -30 -33 -99 -33 -43 0 -77 5 -84 12
-8 8 -12 45 -12 100 0 86 1 89 26 98 48 18 154 4 154 -21 0 -5 11 -9 24 -9 32
0 38 31 28 141 -3 27 -31 30 -61 8 -22 -16 -39 -19 -97 -17 l-69 3 0 90 0 90
82 3 c82 3 82 3 97 -26 18 -35 40 -46 67 -31 17 9 19 19 17 77 l-3 67 -212 3
c-204 2 -212 2 -223 -18z"/>
<path d="M1747 5923 c-16 -15 -6 -61 18 -83 l25 -23 0 -227 0 -227 -30 -26
c-31 -28 -32 -50 -2 -74 24 -19 216 -18 232 1 22 27 7 59 -37 84 l-43 23 0 73
c0 80 9 96 55 96 38 0 52 -10 71 -45 42 -82 54 -105 77 -155 37 -80 53 -92
123 -88 54 3 59 5 68 31 9 25 7 31 -22 53 -17 14 -51 58 -74 97 -23 40 -50 81
-60 91 -25 28 -23 39 15 60 87 51 121 147 83 237 -19 47 -43 66 -109 89 -47
17 -83 20 -220 20 -90 0 -167 -3 -170 -7z m339 -104 c59 -36 59 -132 0 -169
-38 -23 -144 -28 -164 -8 -13 13 -17 179 -5 191 3 4 35 7 71 7 48 0 73 -5 98
-21z"/>
<path d="M2617 5923 c-16 -15 -6 -61 18 -83 l25 -23 0 -228 0 -228 -25 -19
c-27 -21 -33 -60 -13 -80 18 -18 222 -16 238 2 22 27 7 59 -37 84 l-43 23 0
73 c0 81 9 96 57 96 41 0 63 -21 94 -91 13 -30 39 -85 59 -124 l35 -70 65 -3
c52 -2 67 0 77 14 21 29 15 50 -21 75 -19 13 -45 44 -57 69 -12 25 -38 67 -57
93 -33 46 -34 49 -17 67 10 11 26 22 36 25 10 3 32 27 48 52 35 53 41 116 17
174 -19 47 -43 66 -109 89 -47 17 -83 20 -220 20 -90 0 -167 -3 -170 -7z m349
-117 c27 -27 34 -42 34 -73 0 -42 -11 -61 -50 -87 -29 -19 -140 -22 -158 -4
-13 13 -17 179 -5 191 3 4 38 7 76 7 65 0 71 -2 103 -34z"/>
<path d="M3427 5923 c-19 -18 -5 -62 27 -86 32 -25 81 -115 167 -305 40 -89
40 -148 -1 -187 -24 -23 -30 -35 -25 -55 4 -14 12 -28 18 -32 20 -13 182 -9
195 4 19 19 14 53 -13 78 -21 20 -25 33 -25 81 0 60 -2 54 110 294 27 58 56
103 81 126 33 31 38 40 30 60 -8 23 -14 24 -101 27 -97 3 -120 -5 -120 -39 0
-11 9 -28 20 -39 27 -27 26 -41 -17 -152 -32 -82 -41 -98 -60 -98 -17 0 -24 8
-32 38 -6 20 -22 61 -36 90 -29 60 -31 93 -9 127 10 16 14 34 10 50 -6 25 -8
25 -110 25 -56 0 -106 -3 -109 -7z"/>
<path d="M5957 5923 c-15 -14 -6 -53 18 -79 l25 -27 0 -229 0 -229 -25 -23
c-27 -25 -32 -55 -13 -74 18 -18 143 -16 162 4 23 23 20 42 -14 76 l-30 30 0
193 c0 193 8 237 31 178 37 -92 52 -131 59 -158 5 -16 18 -55 30 -85 12 -30
32 -88 46 -128 35 -107 48 -122 99 -122 55 0 68 16 104 126 16 49 34 103 40
119 7 17 28 80 47 140 33 100 46 124 66 125 4 0 4 -89 1 -197 -5 -193 -6 -199
-30 -225 -21 -22 -24 -31 -16 -55 l10 -28 99 0 99 0 3 35 c2 28 -3 41 -23 60
l-25 23 0 218 c0 217 0 217 25 247 15 18 25 42 25 61 l0 31 -100 0 c-99 0
-100 0 -114 -29 -14 -27 -98 -263 -116 -326 -14 -48 -54 -159 -63 -173 -13
-20 -24 -6 -42 56 -10 31 -29 86 -42 122 -29 75 -81 214 -93 250 -4 14 -15 42
-24 63 l-16 37 -98 0 c-54 0 -102 -3 -105 -7z"/>
<path d="M7107 5924 c-17 -17 -5 -57 23 -82 l30 -26 0 -228 0 -227 -30 -21
c-35 -25 -40 -64 -11 -80 24 -12 417 -14 425 -1 10 16 16 86 10 119 -10 51
-31 52 -71 4 l-35 -42 -72 0 c-43 0 -77 5 -84 12 -8 8 -12 45 -12 100 0 86 1
89 26 98 43 17 103 12 135 -11 50 -35 64 -24 67 56 2 56 0 72 -14 82 -13 10
-21 8 -43 -8 -22 -16 -40 -19 -97 -17 l-69 3 0 90 0 90 80 3 79 3 32 -38 c27
-32 35 -36 51 -27 15 9 18 24 18 80 l0 69 -216 3 c-118 1 -218 -1 -222 -4z"/>
<path d="M8097 5923 c-4 -3 -7 -14 -7 -23 0 -9 -12 -45 -26 -81 -14 -35 -30
-80 -34 -99 -5 -19 -33 -106 -63 -193 -51 -146 -79 -195 -109 -197 -11 0 -10
-52 0 -68 6 -9 34 -12 103 -10 92 3 94 3 103 30 8 23 6 32 -12 51 -26 27 -29
79 -6 101 12 12 38 16 114 16 l99 0 16 -30 c20 -39 19 -63 -5 -85 -25 -23 -26
-47 -2 -68 23 -21 181 -24 200 -5 22 22 14 62 -16 80 -16 9 -33 32 -39 50 -6
18 -32 92 -58 163 -25 72 -50 144 -55 160 -13 46 -64 188 -73 203 -9 13 -118
18 -130 5z m97 -225 c13 -52 29 -105 36 -118 11 -21 10 -26 -10 -42 -28 -23
-102 -24 -124 -3 -16 16 -13 61 6 97 4 10 13 41 18 70 10 49 36 105 46 95 3
-2 15 -47 28 -99z"/>
<path d="M8686 5922 c-12 -19 -9 -104 3 -112 17 -10 51 -1 58 16 4 10 24 14
64 14 47 0 60 -4 69 -19 6 -12 10 -105 10 -234 l0 -214 -25 -27 c-27 -29 -32
-65 -13 -84 17 -17 182 -16 195 1 23 29 21 46 -8 76 l-29 31 0 209 c0 115 4
221 10 235 9 23 15 26 62 26 31 -1 61 -7 72 -15 11 -8 30 -15 43 -15 23 0 24
3 21 58 l-3 57 -262 3 c-144 1 -264 -1 -267 -6z"/>
<path d="M10063 5894 c-78 -55 -99 -139 -57 -240 21 -51 110 -105 195 -119 58
-9 103 -45 107 -84 5 -53 -5 -78 -42 -100 -60 -38 -166 -19 -166 29 0 27 -28
50 -60 50 -33 0 -45 -16 -55 -73 -6 -32 -4 -42 16 -63 12 -13 33 -24 45 -24
13 0 35 -5 50 -11 16 -5 58 -11 94 -11 160 -3 260 80 260 216 0 96 -69 164
-196 195 -22 5 -56 16 -77 25 -92 40 -68 166 32 166 56 0 69 -7 92 -51 16 -32
25 -39 48 -39 39 0 53 21 55 81 1 49 -1 52 -34 70 -28 15 -56 19 -145 19 -111
0 -111 0 -162 -36z"/>
<path d="M10777 5923 c-16 -15 -6 -61 18 -83 l25 -23 0 -228 0 -228 -25 -19
c-27 -21 -33 -60 -13 -80 19 -19 183 -16 202 4 24 23 19 48 -14 72 -30 22 -30
24 -30 115 0 59 4 97 12 105 8 8 49 12 119 12 124 0 119 6 119 -123 0 -72 -2
-79 -29 -108 -29 -30 -31 -47 -8 -76 13 -17 178 -18 195 -1 19 19 14 55 -13
84 l-25 27 0 219 0 219 26 25 c18 19 24 34 22 58 l-3 31 -100 3 c-85 2 -102 0
-112 -15 -18 -23 -17 -25 17 -68 26 -32 30 -46 30 -97 0 -94 -4 -98 -116 -98
-130 0 -134 3 -134 95 0 65 3 76 24 92 30 24 41 59 26 78 -9 11 -37 15 -110
15 -53 0 -100 -3 -103 -7z"/>
<path d="M11819 5901 c-96 -61 -129 -141 -129 -317 0 -151 16 -209 75 -268
119 -119 364 -82 441 65 56 110 60 329 6 434 -45 90 -98 115 -239 115 -102 0
-111 -2 -154 -29z m231 -83 c52 -38 65 -87 64 -239 0 -135 -1 -138 -29 -174
-39 -52 -104 -80 -150 -65 -51 17 -87 61 -107 132 -34 120 -16 272 40 331 47
50 126 57 182 15z"/>
<path d="M12587 5923 c-16 -15 -6 -61 18 -81 l25 -22 0 -224 0 -224 -25 -30
c-27 -32 -32 -61 -13 -80 8 -8 49 -12 120 -12 96 0 108 2 118 19 17 33 11 50
-22 71 -53 30 -58 38 -58 84 0 60 18 72 118 79 185 14 258 98 236 269 -9 67
-50 113 -124 139 -45 16 -82 19 -220 19 -92 0 -170 -3 -173 -7z m333 -98 c43
-22 60 -53 60 -108 0 -64 -24 -104 -70 -117 -49 -14 -134 -12 -148 2 -15 15
-16 175 -2 212 9 24 14 26 70 26 35 0 74 -6 90 -15z"/>
<path d="M2187 4874 c-4 -4 -7 -110 -7 -235 0 -191 2 -230 15 -243 9 -8 22
-13 30 -10 12 5 15 26 15 98 0 50 5 98 10 106 7 11 36 16 116 20 73 3 109 9
112 18 3 9 -21 12 -97 12 -128 0 -141 9 -141 103 0 97 6 101 147 107 173 7
150 24 -38 28 -85 1 -158 -1 -162 -4z"/>
<path d="M2810 4641 c0 -192 3 -241 14 -250 11 -9 18 -8 30 4 12 13 16 37 16
110 0 105 0 105 80 105 90 0 122 -32 133 -129 6 -50 28 -101 45 -101 26 1 34
19 23 50 -6 18 -11 52 -11 74 0 28 -8 54 -25 78 -14 20 -25 42 -25 47 0 6 16
26 35 45 30 30 35 42 35 81 0 26 -7 57 -16 71 -30 46 -62 54 -204 54 l-130 0
0 -239z m234 193 c79 -38 73 -145 -11 -180 -38 -16 -116 -18 -144 -4 -16 9
-19 22 -19 95 0 69 3 86 18 94 27 16 118 13 156 -5z"/>
<path d="M3477 4874 c-4 -4 -7 -112 -7 -239 0 -186 3 -235 14 -244 9 -8 61
-11 162 -9 141 3 149 4 149 23 0 19 -8 20 -130 25 l-130 5 -3 73 c-2 46 2 79
9 88 8 10 39 14 120 14 87 0 109 3 109 14 0 11 -24 15 -110 18 -85 2 -113 7
-120 18 -15 23 -12 167 3 177 6 4 66 10 132 13 175 7 153 24 -36 28 -85 1
-158 -1 -162 -4z"/>
<path d="M4150 4844 c-41 -37 -58 -83 -45 -123 15 -48 113 -109 177 -110 16
-1 41 -15 64 -36 32 -31 36 -39 31 -70 -9 -54 -40 -74 -113 -75 -58 0 -62 2
-98 40 -20 22 -46 40 -56 40 -32 0 -24 -39 16 -75 89 -82 272 -58 304 41 27
81 -17 147 -118 179 -120 37 -159 70 -147 125 7 33 58 70 96 70 31 0 84 -32
105 -65 17 -25 48 -33 59 -15 10 16 -30 73 -63 93 -21 12 -51 17 -101 17 -67
0 -73 -2 -111 -36z"/>
<path d="M4740 4642 c0 -201 2 -242 15 -252 12 -10 18 -10 30 0 11 9 15 35 15
104 0 58 4 96 12 104 17 17 252 17 266 -1 6 -7 13 -56 14 -108 3 -93 3 -94 28
-94 l25 0 0 240 0 240 -25 0 c-25 0 -25 0 -28 -108 -3 -105 -3 -108 -28 -117
-14 -6 -72 -10 -128 -10 -133 0 -134 1 -138 135 l-3 100 -27 3 -28 3 0 -239z"/>
<path d="M5947 4843 c-16 -37 -45 -120 -92 -258 -23 -71 -39 -112 -58 -152
-13 -28 -2 -55 20 -51 20 4 45 49 64 116 7 24 20 47 30 53 27 14 175 11 187
-4 6 -7 21 -43 33 -80 22 -69 50 -100 71 -79 8 8 7 23 0 49 -10 36 -132 388
-147 426 -5 12 -19 17 -50 17 -39 0 -43 -3 -58 -37z m85 -70 c31 -78 49 -146
41 -153 -10 -10 -33 -13 -97 -11 l-48 1 5 33 c7 41 44 146 58 163 15 18 23 12
41 -33z"/>
<path d="M6517 4874 c-4 -4 -7 -112 -7 -239 0 -195 2 -235 15 -245 12 -10 18
-10 30 0 12 10 15 45 15 196 0 264 3 263 156 -35 67 -129 101 -171 137 -171
55 0 58 11 55 263 l-3 232 -27 3 -28 3 0 -195 c0 -246 -11 -259 -88 -108 -22
42 -54 104 -72 137 -18 33 -45 83 -60 110 -25 47 -29 50 -71 53 -25 2 -48 0
-52 -4z"/>
<path d="M7257 4873 c-13 -12 -8 -468 5 -481 27 -27 226 -9 296 26 121 62 151
288 53 395 -51 56 -88 67 -224 67 -68 0 -127 -3 -130 -7z m241 -43 c28 -12 56
-34 70 -54 62 -90 48 -241 -29 -311 l-40 -36 -92 3 -92 3 -3 195 c-2 174 -1
196 15 207 26 20 118 16 171 -7z"/>
<path d="M8327 4874 c-11 -12 -8 -453 3 -475 10 -17 22 -19 143 -19 152 0 177
5 177 31 0 22 -2 23 -142 23 -58 1 -110 5 -115 9 -4 5 -10 104 -13 220 -5 204
-6 212 -25 215 -12 2 -24 0 -28 -4z"/>
<path d="M8994 4848 c-29 -20 -59 -51 -74 -78 -22 -39 -25 -57 -25 -135 1 -73
5 -98 23 -132 29 -55 78 -91 148 -109 100 -27 205 13 261 98 26 39 28 49 28
144 0 98 -1 104 -30 145 -17 24 -48 56 -70 71 -36 25 -49 27 -126 28 -81 0
-90 -2 -135 -32z m206 -21 c67 -33 93 -87 93 -191 0 -141 -52 -206 -164 -206
-71 0 -104 16 -139 68 -23 32 -25 46 -25 136 0 93 2 104 27 140 29 42 85 74
133 75 17 0 50 -9 75 -22z"/>
<path d="M9775 4867 c-104 -61 -129 -108 -130 -237 0 -87 2 -99 28 -142 34
-56 72 -82 145 -97 95 -20 188 16 230 90 26 45 27 55 7 63 -21 8 -45 -3 -45
-20 0 -8 -16 -32 -36 -54 -35 -39 -38 -40 -101 -40 -77 0 -112 20 -145 83 -33
63 -32 185 2 247 26 47 92 90 137 90 49 0 103 -31 129 -76 26 -45 59 -58 70
-29 9 21 -32 82 -74 110 -32 22 -48 25 -117 25 -44 -1 -89 -6 -100 -13z"/>
<path d="M10494 4863 c-3 -10 -12 -32 -20 -50 -8 -17 -14 -36 -14 -41 0 -6
-14 -48 -31 -94 -43 -114 -86 -230 -92 -250 -3 -9 0 -24 8 -34 13 -18 14 -18
34 0 12 11 21 26 21 35 0 27 36 112 51 122 8 5 51 9 97 9 82 0 82 0 102 -32
11 -18 20 -41 20 -50 0 -26 31 -86 48 -93 38 -14 38 31 0 125 -6 14 -28 79
-51 145 -22 66 -48 143 -57 170 -17 50 -17 50 -64 53 -37 3 -47 0 -52 -15z
m75 -75 c23 -64 41 -128 41 -151 0 -23 -4 -25 -47 -29 -70 -5 -93 1 -93 21 0
16 22 85 49 154 13 33 38 35 50 5z"/>
<path d="M11057 4873 c-11 -11 -8 -452 3 -474 10 -17 23 -19 155 -19 120 0
146 3 160 16 27 28 4 35 -118 36 -64 1 -122 5 -129 9 -10 6 -14 62 -16 224
l-3 215 -23 0 c-12 0 -26 -3 -29 -7z"/>
</g>
</svg>
